<svg xmlns="http://www.w3.org/2000/svg" xmlns:svg="http://www.w3.org/2000/svg" xmlns:xlink="http://www.w3.org/1999/xlink" id="svg2" width="1024" height="500" version="1.1"><defs id="defs4"><linearGradient id="linearGradient4335"><stop id="stop4337" offset="0" stop-color="#fff" stop-opacity="0"/><stop id="stop4339" offset=".241" stop-color="#fff" stop-opacity=".714"/><stop id="stop4341" offset=".884" stop-color="#fff" stop-opacity=".281"/><stop id="stop4343" offset="1" stop-color="#fff" stop-opacity="0"/></linearGradient><linearGradient id="linearGradient3906"><stop id="stop3908" offset="0" stop-color="#fff" stop-opacity="0"/><stop id="stop3910" offset=".359" stop-color="#fff" stop-opacity="1"/><stop id="stop3912" offset=".884" stop-color="#fff" stop-opacity=".433"/><stop id="stop3914" offset="1" stop-color="#fff" stop-opacity="0"/></linearGradient><marker id="Tail" orient="auto" overflow="visible" refX="0" refY="0"><g id="g4692" transform="scale(-1.2,-1.2)"><path id="path4694" fill="none" stroke="#000" stroke-linecap="round" stroke-width=".8" marker-end="none" marker-start="none" d="M -3.8048674,-3.9585227 0.54352094,0"/><path id="path4696" fill="none" stroke="#000" stroke-linecap="round" stroke-width=".8" marker-end="none" marker-start="none" d="M -1.2866832,-3.9585227 3.0617053,0"/><path id="path4698" fill="none" stroke="#000" stroke-linecap="round" stroke-width=".8" marker-end="none" marker-start="none" d="M 1.3053582,-3.9585227 5.6537466,0"/><path id="path4700" fill="none" stroke="#000" stroke-linecap="round" stroke-width=".8" marker-end="none" marker-start="none" d="M -3.8048674,4.1775838 0.54352094,0.21974226"/><path id="path4702" fill="none" stroke="#000" stroke-linecap="round" stroke-width=".8" marker-end="none" marker-start="none" d="M -1.2866832,4.1775838 3.0617053,0.21974226"/><path id="path4704" fill="none" stroke="#000" stroke-linecap="round" stroke-width=".8" marker-end="none" marker-start="none" d="M 1.3053582,4.1775838 5.6537466,0.21974226"/></g></marker><linearGradient id="linearGradient4263"><stop id="stop4265" offset="0" stop-color="#bfbfbf" stop-opacity="1"/><stop id="stop4267" offset="1" stop-color="#fff" stop-opacity="1"/></linearGradient><linearGradient id="linearGradient4158"><stop id="stop4160" offset="0" stop-color="#fff" stop-opacity="1"/><stop id="stop4162" offset="1" stop-color="#fff" stop-opacity="0"/></linearGradient><linearGradient id="linearGradient3177"><stop id="stop3187" offset="0" stop-color="#fff" stop-opacity="0"/><stop id="stop3200" offset=".438" stop-color="#fff" stop-opacity="1"/><stop id="stop3191" offset=".938" stop-color="#fff" stop-opacity=".433"/><stop id="stop3181" offset="1" stop-color="#fff" stop-opacity="0"/></linearGradient><linearGradient id="linearGradient3167"><stop id="stop3169" offset="0" stop-color="#fff" stop-opacity="1"/><stop id="stop3171" offset="1" stop-color="#fff" stop-opacity="0"/></linearGradient><linearGradient id="linearGradient3341" x1="337.493" x2="416.385" y1="402.106" y2="645.41" gradientTransform="matrix(0.08737273,0,0,0.08134103,83.682183,966.62592)" gradientUnits="userSpaceOnUse" xlink:href="#linearGradient3167"/><linearGradient id="linearGradient3345" x1="356.357" x2="425.961" y1="164.762" y2="646.654" gradientTransform="matrix(0.08334585,0,0,0.08334585,2.6106401,974.71004)" gradientUnits="userSpaceOnUse" xlink:href="#linearGradient3177"/><radialGradient id="radialGradient4275" cx="33.772" cy="40.636" r="17.498" fx="33.772" fy="40.636" gradientTransform="matrix(1,0,0,0.90369811,0,3.9133352)" gradientUnits="userSpaceOnUse" xlink:href="#linearGradient4263"/><radialGradient id="radialGradient3878" cx="33.772" cy="40.636" r="17.498" fx="33.772" fy="40.636" gradientTransform="matrix(1.161721,0,0,1.0498451,-2.6955965,978.41529)" gradientUnits="userSpaceOnUse" xlink:href="#linearGradient4263"/><linearGradient id="linearGradient3055" x1="-23.4" x2="8.147" y1="8.182" y2="-.75" gradientUnits="userSpaceOnUse" xlink:href="#linearGradient4263"/><linearGradient id="linearGradient4134" x1="27.397" x2="55.474" y1="1036.773" y2="1036.773" gradientTransform="matrix(-4.4109111,0,0,-4.4109111,572.44046,5554.6569)" gradientUnits="userSpaceOnUse" xlink:href="#linearGradient3167"/><linearGradient id="linearGradient4134-4" x1="27.397" x2="55.474" y1="1036.773" y2="1036.773" gradientTransform="matrix(-1,0,0,-1,82.871795,2073.5448)" gradientUnits="userSpaceOnUse" xlink:href="#linearGradient3167-7"/><linearGradient id="linearGradient3167-7"><stop id="stop3169-0" offset="0" stop-color="#fff" stop-opacity="1"/><stop id="stop3171-1" offset="1" stop-color="#fff" stop-opacity="0"/></linearGradient><linearGradient id="linearGradient4151" x1="27.397" x2="55.474" y1="1036.773" y2="1036.773" gradientTransform="matrix(-4.4109111,0,0,-4.4109111,595.96535,5447.8908)" gradientUnits="userSpaceOnUse" xlink:href="#linearGradient3167-7"/><linearGradient id="linearGradient4134-1" x1="27.397" x2="55.474" y1="1036.773" y2="1036.773" gradientTransform="matrix(-1,0,0,-1,88.205128,2064.1089)" gradientUnits="userSpaceOnUse" xlink:href="#linearGradient3167-2"/><linearGradient id="linearGradient3167-2"><stop id="stop3169-5" offset="0" stop-color="#fff" stop-opacity="1"/><stop id="stop3171-3" offset="1" stop-color="#fff" stop-opacity="0"/></linearGradient><linearGradient id="linearGradient4185" x1="27.397" x2="55.474" y1="1036.773" y2="1036.773" gradientTransform="matrix(-2.4985681,0,0,-2.4985681,565.88271,3480.6077)" gradientUnits="userSpaceOnUse" xlink:href="#linearGradient3167-2"/><linearGradient id="linearGradient4134-49" x1="27.397" x2="55.474" y1="1036.773" y2="1036.773" gradientTransform="matrix(-1,0,0,-1,88.205128,2064.1089)" gradientUnits="userSpaceOnUse" xlink:href="#linearGradient3167-0"/><linearGradient id="linearGradient3167-0"><stop id="stop3169-1" offset="0" stop-color="#fff" stop-opacity="1"/><stop id="stop3171-5" offset="1" stop-color="#fff" stop-opacity="0"/></linearGradient><linearGradient id="linearGradient4185-1" x1="27.397" x2="55.474" y1="1036.773" y2="1036.773" gradientTransform="matrix(-0.56645172,0,0,-0.56645172,86.718419,1593.9001)" gradientUnits="userSpaceOnUse" xlink:href="#linearGradient3167-2-0"/><linearGradient id="linearGradient3167-2-0"><stop id="stop3169-5-6" offset="0" stop-color="#fff" stop-opacity="1"/><stop id="stop3171-3-4" offset="1" stop-color="#fff" stop-opacity="0"/></linearGradient><linearGradient id="linearGradient4236" x1="27.397" x2="55.474" y1="1036.773" y2="1036.773" gradientTransform="matrix(-2.4985681,0,0,-2.4985681,607.20589,3579.2317)" gradientUnits="userSpaceOnUse" xlink:href="#linearGradient3167-2-0"/><linearGradient id="linearGradient4134-5" x1="27.397" x2="55.474" y1="1036.773" y2="1036.773" gradientTransform="matrix(-1,0,0,-1,88.205128,2064.1089)" gradientUnits="userSpaceOnUse" xlink:href="#linearGradient3167-74"/><linearGradient id="linearGradient3167-74"><stop id="stop3169-3" offset="0" stop-color="#fff" stop-opacity="1"/><stop id="stop3171-6" offset="1" stop-color="#fff" stop-opacity="0"/></linearGradient><linearGradient id="linearGradient4270" x1="27.397" x2="55.474" y1="1036.773" y2="1036.773" gradientTransform="matrix(-1.510586,0,0,-1.510586,630.50896,2564.1028)" gradientUnits="userSpaceOnUse" xlink:href="#linearGradient3167-74"/><linearGradient id="linearGradient4291" x1="266.694" x2="414.934" y1="164.762" y2="619.088" gradientTransform="matrix(0.26520016,0,0,0.26520016,239.48788,537.68905)" gradientUnits="userSpaceOnUse" xlink:href="#linearGradient3906"/><linearGradient id="linearGradient4291-4" x1="266.694" x2="414.934" y1="164.762" y2="619.088" gradientTransform="matrix(0.06012367,0,0,0.06012367,34.965627,929.74274)" gradientUnits="userSpaceOnUse" xlink:href="#linearGradient3906-0"/><linearGradient id="linearGradient3906-0"><stop id="stop3908-0" offset="0" stop-color="#fff" stop-opacity="0"/><stop id="stop3910-7" offset=".359" stop-color="#fff" stop-opacity=".714"/><stop id="stop3912-0" offset=".884" stop-color="#fff" stop-opacity=".281"/><stop id="stop3914-6" offset="1" stop-color="#fff" stop-opacity="0"/></linearGradient><linearGradient id="linearGradient4312" x1="282.122" x2="414.934" y1="-195.234" y2="619.088" gradientTransform="matrix(0.77806845,0,0,0.77806845,-38.502093,494.05939)" gradientUnits="userSpaceOnUse" xlink:href="#linearGradient4335"/></defs><metadata id="metadata7"/><g id="layer1" transform="translate(0,-552.36215)"><path id="path3852" fill="#c00" fill-opacity="1" stroke="#333" stroke-dasharray="none" stroke-dashoffset="0" stroke-linecap="round" stroke-linejoin="round" stroke-miterlimit="4" stroke-opacity="1" stroke-width="1" d="M 24.440895,39.751599 -2.0082281,40.466448 -21.216057,22.269568 -21.930906,-4.1795557 -3.7340262,-23.387385 22.715097,-24.102234 41.922926,-5.9053538 42.637775,20.54377 z" transform="matrix(3.1080624,0.08827093,-0.08827093,3.1080624,314.82476,645.64366)"/><rect id="rect2383" width="193.636" height="193.636" x="248.622" y="574.718" fill="none" stroke="none"/><path id="path3175" fill="url(#linearGradient4291)" fill-opacity="1" fill-rule="evenodd" stroke="none" d="m 437.3324,635.23837 c 0,16.05588 2.63191,71.08367 -0.54908,71.24663 -6.10604,0.31176 -17.97121,-20.23327 -48.76724,-21.4683 -38.7794,-1.53917 -113.39998,37.68118 -131.08858,22.59086 -3.9079,-3.33377 0.22244,-64.40368 0.22244,-72.88601 0,-46.87727 92.9614,-84.25603 127.30991,-52.3558 26.71679,24.81248 13.58612,14.2663 52.87255,52.87262 z" opacity=".347"/><path id="path3852-5" fill="none" stroke="url(#linearGradient3055)" stroke-dasharray="none" stroke-dashoffset="0" stroke-linecap="round" stroke-linejoin="round" stroke-miterlimit="4" stroke-opacity="1" stroke-width="4.145" d="M 24.440895,39.751599 -2.0082281,40.466448 -21.216057,22.269568 -21.930906,-4.1795557 -3.7340262,-23.387385 22.715097,-24.102234 41.922926,-5.9053538 42.637775,20.54377 z" transform="matrix(2.8789637,0.08176435,-0.08176435,2.8789637,316.96072,647.24481)"/><text id="text3043" x="267.167" y="691.332" fill="#f2f2f2" fill-opacity="1" stroke="none" font-family="Bitstream Vera Sans" font-size="59.181" font-style="normal" font-weight="normal" letter-spacing="0" word-spacing="0" xml:space="preserve" style="line-height:125%"><tspan id="tspan3045" x="267.167" y="691.332">STOP</tspan></text><g id="g3874" transform="matrix(4.410911,0,0,4.410911,423.22531,-3607.1245)"><path id="path4253" fill="url(#radialGradient3878)" fill-opacity="1" fill-rule="nonzero" stroke="#000" stroke-dasharray="none" stroke-linecap="butt" stroke-linejoin="miter" stroke-miterlimit="4" stroke-opacity="1" stroke-width="1.112" d="m 16.327015,1002.823 c -1.863654,-2.2619 6.211627,2.1146 16.215279,2.1511 4.174788,0.2572 5.753469,1.4661 6.926009,2.6939 2.630641,2.4784 3.20235,3.7349 6.530274,2.1316 1.355664,-0.653 3.024421,-4.5164 4.906317,-4.9301 1.467128,-0.2141 3.619526,1.6381 4.158785,2.1702 0.588684,0.581 1.124104,1.1204 1.686384,1.3781 -1.930547,0.1023 -4.605827,4.6079 -4.673811,8.435 0.384969,10.6928 -4.428822,10.1031 -9.163591,15.3349 -1.509634,1.4389 -2.355972,4.4532 -2.357366,7.2026 l -1.98861,-0.061 c -1.178808,0.027 -2.524329,-1.5071 -3.176114,-2.5347 -1.244525,-2.0738 -2.531327,1.8998 -4.46739,-1.3562 0.0896,-1.0767 -5.168452,-1.2872 -2.147546,-3.8021 7.13502,-5.0504 10.618946,-6.1142 10.469694,-7.6368 -0.176332,-1.7988 -4.359873,-0.1699 -8.138192,-0.3445 -6.241584,-0.2883 -5.554758,-4.2434 -6.10805,-6.0838 -5.239916,-2.9179 4.02799,-4.2906 -0.04194,-5.1514 -1.988675,-0.3162 -5.497532,0.4234 -6.236978,-3.016 0.66498,0.8215 9.366113,-0.8583 5.859306,-1.406 -4.865901,-2.208 -6.234889,-1.0261 -8.25246,-5.1751 z"/><path id="path4279" fill="#000" fill-opacity="1" fill-rule="nonzero" stroke="#000" stroke-dasharray="none" stroke-dashoffset="0" stroke-linecap="butt" stroke-linejoin="round" stroke-miterlimit="4" stroke-opacity="1" stroke-width=".2" d="m 47.889123,29.666016 c 0,0.152813 -0.123879,0.276692 -0.276692,0.276692 -0.152814,0 -0.276693,-0.123879 -0.276693,-0.276692 0,-0.152814 0.123879,-0.276693 0.276693,-0.276693 0.152813,0 0.276692,0.123879 0.276692,0.276693 z" transform="matrix(2.8140812,0,0,2.8140812,-82.170599,925.02543)"/></g><text id="text3057" x="472.606" y="691.594" fill="#fff" fill-opacity="1" stroke="none" font-family="Bitstream Vera Sans" font-size="56.117" font-style="normal" font-weight="normal" letter-spacing="0" word-spacing="0" xml:space="preserve" style="line-height:125%"><tspan id="tspan3059" x="472.606" y="691.594">the Ads!</tspan></text><path id="path3298-42" fill="none" stroke="url(#linearGradient4134)" stroke-dasharray="13.233 4.411" stroke-dashoffset="0" stroke-linecap="butt" stroke-linejoin="miter" stroke-miterlimit="4" stroke-opacity="1" stroke-width="4.411" d="M 449.38735,939.92515 329.95345,1023.167"/><path id="path3298-42-3" fill="none" stroke="url(#linearGradient4151)" stroke-dasharray="13.233 4.411" stroke-dashoffset="0" stroke-linecap="butt" stroke-linejoin="miter" stroke-miterlimit="4" stroke-opacity="1" stroke-width="4.411" d="M 472.9122,833.15859 353.4783,916.40043"/><path id="path3298-42-5" fill="none" stroke="url(#linearGradient4185)" stroke-dasharray="7.496 2.499" stroke-dashoffset="0" stroke-linecap="butt" stroke-linejoin="miter" stroke-miterlimit="4" stroke-opacity="1" stroke-width="2.499" d="m 496.17907,866.58452 -67.65354,47.15263"/><path id="path3298-42-5-3" fill="none" stroke="url(#linearGradient4236)" stroke-dasharray="7.496 2.499" stroke-dashoffset="0" stroke-linecap="butt" stroke-linejoin="miter" stroke-miterlimit="4" stroke-opacity="1" stroke-width="2.499" d="m 537.50223,965.20845 -67.65352,47.15265"/><path id="path3298-42-39" fill="none" stroke="url(#linearGradient4270)" stroke-dasharray="4.532 1.511" stroke-dashoffset="0" stroke-linecap="butt" stroke-linejoin="miter" stroke-miterlimit="4" stroke-opacity="1" stroke-width="1.511" d="m 588.36744,983.71485 -40.90203,28.50785"/><path id="path3175-1" fill="url(#linearGradient4312)" fill-opacity="1" fill-rule="evenodd" stroke="none" d="m 1016.1241,812.26999 c 0,47.10609 -466.4501,176.53979 -475.78279,177.01889 -17.91449,0.9184 -52.72559,-59.36239 -143.07783,-62.98629 C 283.48897,921.78647 64.560268,1036.855 12.663853,992.58198 1.1984848,982.8011 -80.717605,585.54933 9.3150198,522.64979 122.0588,443.88292 958.43286,441.78693 1019.0591,527.10032 c 60.7996,85.55794 11.8501,143.89279 -2.935,285.16967 z" opacity=".347"/></g></svg>